<?xml version="1.0" encoding="UTF-8" standalone="no"?><!DOCTYPE svg PUBLIC "-//W3C//DTD SVG 1.1//EN" "http://www.w3.org/Graphics/SVG/1.1/DTD/svg11.dtd"><svg width="100%" height="100%" viewBox="0 0 2250 2250" version="1.1" xmlns="http://www.w3.org/2000/svg" xmlns:xlink="http://www.w3.org/1999/xlink" xml:space="preserve" xmlns:serif="http://www.serif.com/" style="fill-rule:evenodd;clip-rule:evenodd;stroke-linejoin:round;stroke-miterlimit:2;"><path d="M545.802,635.513c205.304,-220.544 514.54,-432.397 838.533,-560.004c-40.713,-16.112 -121.096,-23.985 -121.096,-23.985c-0,-0 -73.678,32.669 -90.663,40.417c-321.377,146.321 -593.42,346.913 -803.972,606.348l121.159,-0c18.363,-21.276 36.975,-42.287 56.039,-62.776" style="fill:#a11d5a;fill-rule:nonzero;"/><path d="M687.362,659.169c3.006,-3.886 6.417,-7.274 10.295,-10.272c162.581,-160.837 473.858,-386.801 792.003,-532.49c-27.918,-10.576 -41.539,-20.513 -78.164,-32.256c-247.512,96.721 -441.407,209.937 -644.903,372.105c-11.884,12.764 -109.501,94.027 -175.625,162.892c-24.438,25.691 -48.571,52.06 -72.316,79.137l131.291,0c12.359,-13.153 24.819,-26.205 37.419,-39.116" style="fill:#dedb1e;fill-rule:nonzero;"/><path d="M1241.22,344.837c48.439,-31.345 334.99,-184.495 334.99,-184.495c-0,-0 -38.876,-27.95 -62.682,-32.801c-190.227,75.048 -477.059,256.569 -648.167,400.638c-67.604,56.927 -129.063,113.395 -185.328,170.104l109.384,0c135.924,-132.856 287.735,-250.759 451.803,-353.446" style="fill:#40823d;fill-rule:nonzero;"/><path d="M1212.53,497.105c1.043,-6.799 111.066,-80.648 232.871,-149.054c87.945,-49.467 231.844,-124.983 234.935,-127.934c4.758,-4.673 -67.183,-46.718 -74.036,-46.718c-6.861,0 -328.02,178.709 -373.499,201.511c-150.511,95.655 -289.705,201.48 -414.735,323.371l146.461,-0c78.335,-71.381 160.541,-138.86 248.003,-201.176" style="fill:#97bf3d;fill-rule:nonzero;"/><path d="M248.369,1758.78c9.088,-25.832 18.574,-51.281 28.37,-76.412l-76.162,0c15.17,26.244 30.847,51.904 47.792,76.412" style="fill:#dedb1e;fill-rule:nonzero;"/><path d="M1184.84,675.572c235.309,-194.494 410.568,-297.103 581.77,-384.074c8.442,-4.284 -46.445,-45.013 -66.802,-57.013c-12.07,-7.118 -459.45,252.488 -492.321,292.314c-72.837,54.302 -142.941,111.479 -210.296,171.49l160.775,-0c8.909,-7.624 17.779,-15.28 26.874,-22.717" style="fill:#de3c55;fill-rule:nonzero;"/><path d="M281.2,1730.04c-5.833,16.392 -10.645,33.33 -18.472,49.256c18.791,27.988 38.533,55.066 60.548,79.978c24.64,-60.626 51.11,-119.445 78.935,-176.91l-103.419,0c-6.043,15.676 -11.93,31.532 -17.592,47.676" style="fill:#40823d;fill-rule:nonzero;"/><path d="M1229.79,675.786c-1.861,2.242 -15.419,11.362 -30.621,22.498l68.983,-0c-20.707,-16.665 -35.449,-26.042 -38.362,-22.498" style="fill:#e85224;fill-rule:nonzero;"/><path d="M1328.95,589.704c-8.543,10.179 -74.939,65.026 -74.939,65.026c-0,0 20.979,17.273 50.58,43.556l143.135,0c-54.287,-54.98 -114.228,-114.072 -118.776,-108.582" style="fill:#dedb1e;fill-rule:nonzero;"/><path d="M1548.28,661.13c-4.112,-3.629 -133.969,-133.58 -140.799,-130.192c-14.742,7.39 -56.195,36.274 -60.33,43.306c-0.943,1.807 80.219,78.865 128.206,124.041l107.399,-0c-11.962,-13.2 -28.713,-31.968 -34.476,-37.155" style="fill:#006334;fill-rule:nonzero;"/><path d="M1275.69,1734.33c3.341,6.705 19.368,-22.498 34.413,-51.959l-59.504,0c9.773,20.645 18.713,39.258 25.091,51.959" style="fill:#2b327e;fill-rule:nonzero;"/><path d="M419.665,1692.1c-0.281,1.06 -1.067,4.136 -1.067,4.136c-7.126,71.957 -9.12,152.831 -11.191,230.745c30.13,32.264 38.299,51.959 90.616,85.601c3.761,-89.502 -8.683,-86.123 6.23,-330.216l-81.006,0c-1.48,3.286 -2.749,6.542 -3.582,9.734" style="fill:#614c3f;fill-rule:nonzero;"/><path d="M922.229,199.588c26.423,-17.39 53.586,-31.065 81.177,-46.11c8.691,-4.86 20.59,-9.548 27.638,-15.42c6.331,-5.311 9.859,-15.715 15.388,-23.573c16.907,-24.234 35.146,-45.339 52.216,-67.697c1.246,-0.226 1.589,-1.145 2.126,-2.079c-35.254,-0 -58.321,4.042 -89.277,8.255c-0.296,3.629 -65.773,98.91 -89.268,146.624" style="fill:#e7332c;fill-rule:nonzero;"/><path d="M858.688,96.023c-36.64,8.535 -53.57,11.852 -89.284,25.356c-6.51,2.476 -26.314,7.46 -39.997,11.541c-2.796,1.316 -6.292,1.877 -7.126,5.132c34.258,8.372 64.552,20.886 97.493,30.816c13.278,-23.986 25.348,-49.163 38.914,-72.845" style="fill:#614c3f;fill-rule:nonzero;"/><path d="M1521.9,603.785c30.66,27.233 42.684,35.301 42.684,35.301c-0,-0 83.56,-233.027 97.282,-265.089c-34.865,14.703 -68.834,39.203 -103.512,57.426c-23.09,47.146 -44.218,96.122 -67.799,142.613c6.978,8.364 22.522,23.075 31.345,29.749" style="fill:#b6ddd3;fill-rule:nonzero;"/><path d="M1919.26,450.916c0.864,-12.85 3.177,-31.875 3.177,-31.875c0,0 -42.232,-50.144 -53.111,-55.533c-0.724,6.97 -9.766,75.999 -20.816,153.664c-9.213,64.661 -19.812,135.302 -28.16,181.116l71.272,-0c12.382,-79.558 22.194,-162.02 27.638,-247.372" style="fill:#fbd37b;fill-rule:nonzero;"/><path d="M1114.02,2206.04l17.561,-0c25.348,0.833 56.841,-1.971 83.093,-4.128c9.415,-0.825 20.489,0.413 26.548,-2.04c5.965,-2.336 252.862,-326.914 348.197,-517.499l-113.698,-0c-104.058,191.854 -224.648,365.922 -361.701,523.667" style="fill:#fbd37b;fill-rule:nonzero;"/><path d="M506.803,516.551c14.267,-15.194 34.78,-29.53 45.168,-45.106c-62.479,-31.516 -187.781,-83.996 -200.794,-87.166c-23.269,20.178 -37.131,38.346 -57.636,64.567c69.629,24.009 134.032,53.314 196.885,84.16c5.047,-5.957 10.498,-11.409 16.377,-16.455" style="fill:#c7468f;fill-rule:nonzero;"/><path d="M1997.32,552.519c1.013,-12.421 4.307,-24.974 2.991,-32.886c-1.978,-11.83 -18.301,-28.332 -26.571,-39.974c-11.69,-16.315 -20.785,-30.496 -30.792,-41.064c-0.086,-0.615 -0.18,-1.176 -1.06,-0.997c-7.125,89.37 -17.233,176.186 -29.904,260.689l70.306,0c5.911,-47.893 11.012,-96.418 15.03,-145.768" style="fill:#00934b;fill-rule:nonzero;"/><path d="M1525.42,1843.87c-72.977,122.662 -212.788,310.007 -252.387,351.873c45.152,-7.273 89.448,-15.209 130.379,-26.696c120.396,-141.032 221.564,-305.303 305.389,-486.675l-95.81,-0c-27.506,55.54 -56.623,109.508 -87.571,161.498" style="fill:#00934b;fill-rule:nonzero;"/><path d="M473.995,548.371c-60.743,-29.803 -180.539,-76.007 -194.05,-82.953c-22.117,25.387 -36.555,44.926 -54.202,74.776c66.023,21.206 125.614,48.758 184.675,76.941c20.972,-23.199 42.964,-45.214 63.577,-68.764" style="fill:#77b3c8;fill-rule:nonzero;"/><path d="M232.14,698.285c-16.689,-8.271 -60.097,-27.054 -77.097,-34.99c-5.498,11.51 -10.824,23.199 -16.05,34.99l93.147,-0Z" style="fill:#e95e24;fill-rule:nonzero;"/><path d="M1601.34,2095.24c15.52,-8.231 32.848,-17.647 50.214,-27.708c16.626,-9.532 36.181,-18.098 49.209,-29.764c7.819,-6.954 14.61,-19.282 22.623,-29.718c22.623,-29.522 45.721,-62.004 64.622,-92.321c46.304,-73.857 88.272,-151.538 125.839,-233.362l-85.819,-0c-67.55,145.993 -143.922,282.914 -226.688,412.873" style="fill:#2b327e;fill-rule:nonzero;"/><path d="M2085.43,665.264c0,0.709 -1.853,20.38 -2.461,24.64c-0.132,1.682 -1.261,6.713 -1.386,8.379l14.96,0c-0.576,-1.106 -10.529,-31.991 -11.113,-33.019" style="fill:#2b327e;fill-rule:nonzero;"/><path d="M1858.75,1837.74c-22.599,41.578 -69.535,116.082 -95.109,154.778c2.515,2.913 18.55,-16.805 25.341,-21.408c17.241,-14.064 41.375,-36.656 59.59,-53.345c5.116,-4.696 18.114,-13.83 19.43,-20.543c1.526,-7.305 -2.718,-20.014 -4.011,-29.718c-1.612,-10.56 -2.126,-20.66 -5.241,-29.764" style="fill:#e85224;fill-rule:nonzero;"/><path d="M655.482,384.281c20.466,-16.65 42.59,-31.384 61.631,-49.241c-69.387,-28.752 -219.609,-79.316 -221.767,-78.132c-2.149,1.183 -26.991,18.697 -39.763,28.868c-4.174,3.294 -11.868,8.636 -10.303,11.315c73.437,25.746 143.128,55.113 210.202,87.19" style="fill:#e95e24;fill-rule:nonzero;"/><path d="M1800.33,695.019c16.899,-90.258 46.99,-284.472 50.596,-343.401c-15.716,-11.424 -24.111,-23.144 -42.661,-33.136c-25.987,115.248 -56.857,244.794 -93.505,379.8l84.924,-0c0.202,-1.098 0.443,-2.165 0.646,-3.263" style="fill:#e41e25;fill-rule:nonzero;"/><path d="M1221.8,1868.02c-80.905,122.483 -175.368,231.306 -244.093,330.559c38.649,7.616 50.907,8.932 100.483,7.46c11.276,1.09 16.86,-10.902 22.583,-17.483c132.319,-151.694 250.324,-320.606 351.959,-506.184l-121.509,0c-34.888,65.361 -71.054,127.615 -109.423,185.648" style="fill:#de3c55;fill-rule:nonzero;"/><path d="M387.914,643.761c2.944,-3.528 8.185,-8.419 6.129,-10.21c-56.071,-28.845 -115.474,-54.154 -179.581,-74.924c-0.086,-2.492 -3.349,-0.226 -3.077,1.013c-17.327,27.03 -34.872,53.952 -49.194,84.121c39.99,16.907 78.047,35.737 116.167,54.521l63.672,-0c15.185,-18.659 31.321,-37.583 45.884,-54.521" style="fill:#2b327e;fill-rule:nonzero;"/><path d="M511.998,2018.22c19.656,13.994 47.714,33.657 82.135,51.398c4.813,-65.961 11.58,-226.821 21.221,-387.245l-93.637,0c-7.827,137.645 -6.908,259.902 -9.719,335.847" style="fill:#cc9f64;fill-rule:nonzero;"/><path d="M865.115,1908.08c-0.701,8.886 -0.865,127.903 -0.865,142.24c2.251,1.768 6.822,118.472 6.573,132.856c29.561,9.773 46.897,9.08 81.652,13.589c5.771,-15.451 1.605,-113.504 1.605,-126.127c-2.375,-3.777 -0.358,-12.017 -1.044,-17.429l0,-133.37c0.686,-5.864 -1.331,-14.344 1.044,-18.472l-0,-40.028c0.638,-3.076 -1.293,-8.792 1.059,-10.233c1.082,-57.285 3.348,-113.418 6.456,-168.733l-94.596,0c-3.753,54.887 -1.884,211.362 -1.884,225.707" style="fill:#fbd37b;fill-rule:nonzero;"/><path d="M1975.78,1775.2c8.824,-8.629 16.471,-21.167 25.613,-33.892c6.402,-8.839 23.052,-26.415 24.625,-37.925c0.693,-5.311 -0.265,-12.959 -1.581,-21.019l-59.139,0c4.198,31.314 7.157,60.704 10.482,92.836" style="fill:#006334;fill-rule:nonzero;"/><path d="M845.821,1682.37l-105.14,0c-6.37,223.09 6.207,463.235 6.207,463.235l101.557,30.613c0,0 -9.672,-340.939 -2.624,-493.848" style="fill:#038a44;fill-rule:nonzero;"/><path d="M976.08,2083.14c-2.445,42.652 -0.264,44.062 -1.643,70.734c54.638,-79.503 232.848,-321.813 282.315,-406.347c-10.568,-25.839 -17.398,-44.522 -26.112,-65.159l-31.539,0c-52.932,95.398 -201.441,364.334 -223.021,400.772" style="fill:#03a196;fill-rule:nonzero;"/><path d="M977.707,1799.78c6.269,-9.587 33.347,-60.619 63.095,-117.413l-58.165,-0c-2.22,38.587 -4.104,77.509 -4.93,117.413" style="fill:#8599ca;fill-rule:nonzero;"/><path d="M1215.65,47.829c-31.174,-2.671 -52.387,-4.968 -86.948,-4.267c-2.765,2.78 -15.949,19.461 -18.675,22.677c-13.496,15.7 -27.934,35.784 -36.991,49.295c46.842,-23.284 95.491,-44.77 142.614,-67.705" style="fill:#069547;fill-rule:nonzero;"/><path d="M896.608,198.592c24.195,-44.989 55.455,-91.691 82.158,-133.37c0.616,-1.059 5.428,-5.155 1.932,-6.168c-33.043,5.584 -61.444,15.762 -91.216,24.648c-16.697,30.815 -34.312,60.79 -49.288,93.342c19.259,6.759 36.758,15.162 56.414,21.548" style="fill:#cc9f64;fill-rule:nonzero;"/><path d="M888.44,218.038c-64.022,-24.811 -128.261,-49.474 -198.964,-67.705c-24.827,9.524 -49.646,18.846 -70.844,31.844c74.877,20.146 141.274,48.937 209.244,75.882c19.975,-13.512 42.053,-25.014 60.564,-40.021" style="fill:#006334;fill-rule:nonzero;"/><path d="M809.955,269.205c-64.878,-28.168 -202.889,-82.019 -207.702,-79.869c-29.865,16.704 -60.501,32.575 -86.2,53.344c79.581,20.287 150.518,49.171 221.564,77.977c23.331,-15.645 49.474,-35.347 72.338,-51.452" style="fill:#dedb1e;fill-rule:nonzero;"/><path d="M637.093,398.627c-67.611,-31.205 -136.251,-61.35 -211.307,-85.134c-19.609,12.523 -39.935,33.261 -56.367,52.255c71.365,26.065 135.535,59.38 201.044,91.34c21.657,-20.021 45.347,-38.112 66.63,-58.461" style="fill:#935e35;fill-rule:nonzero;"/><path d="M1523.38,454.011c-33.253,20.824 -66.716,41.321 -97.469,64.606c17.265,12.756 31.345,28.837 49.225,41.025c16.089,-35.215 32.155,-70.524 49.217,-104.634c0.094,-1.09 -0.467,-2.601 -0.973,-0.997" style="fill:#b07e47;fill-rule:nonzero;"/><path d="M2071.05,643.285c-17.561,-36.492 -30.497,-61.584 -52.232,-93.895l0,2.056c-4.579,49.662 -10.053,98.56 -16.213,146.843l61.607,-0c1.137,-14.696 5.95,-40.122 6.838,-55.004" style="fill:#8599ca;fill-rule:nonzero;"/><path d="M1445.4,2150.61c-1.861,2.235 -6.276,4.221 -5.108,8.192c43.049,-12.748 82.821,-28.518 122.085,-45.128c90.173,-134.92 171.397,-278.071 242.552,-431.307l-73.414,0c-78.716,173.164 -172.136,331.034 -286.115,468.243" style="fill:#8599ca;fill-rule:nonzero;"/><path d="M625.921,1872.53c-5.412,105.14 -10.248,201.518 -10.303,209.376c13.87,8.122 104.556,51.865 104.556,51.865c0,0 -2.842,-307.858 1.051,-451.406l-85.375,0c-2.827,53.392 -6.494,123.519 -9.929,190.165" style="fill:#e7332c;fill-rule:nonzero;"/><path d="M1892.68,1773.12c-4.704,9.321 -15.778,26.867 -16.502,33.907c-0.927,10.334 3.543,24.196 5.241,35.823c1.55,11.58 4.205,23.168 5.085,35.916c12.577,-11.83 24.29,-24.002 36.882,-37.918c7.064,-7.733 31.096,-32.163 32.809,-42.068c1.628,-8.341 -0.997,-21.603 -2.017,-31.82c-2.655,-26.813 -6.954,-58.134 -10.03,-84.597l-6.573,0c-13.262,26.727 -31.033,63.173 -44.895,90.757" style="fill:#dedb1e;fill-rule:nonzero;"/><path d="M374.506,1903.41c3.699,3.613 7.741,8.823 11.284,8.185c1.464,-54.934 6.129,-112.235 7.188,-164.069c-16.728,40.753 -35.69,79.091 -50.191,122.047c7.422,9.68 21.696,23.814 31.719,33.837" style="fill:#fedd01;fill-rule:nonzero;"/><path d="M1748.07,463.244c7.125,-25.84 29.398,-148.626 34.74,-148.065c-46.422,14.36 -61.732,28.744 -89.985,45.331c-31.766,98.785 -68.212,207.414 -108.411,304.751c9.361,6.565 20.146,21.984 28.152,29.756c1.355,1.051 2.547,2.181 3.824,3.271l67.759,-0c25.512,-78.662 43.751,-152.582 63.921,-235.044" style="fill:#c7468f;fill-rule:nonzero;"/><path d="M976.62,1834.62c-4.384,72.51 -1.386,134.733 -2.975,209.961c11.526,-17.639 136.298,-250.822 194.806,-362.208l-107.071,0c-35.729,64.481 -71.615,128.892 -84.76,152.247" style="fill:#7e3874;fill-rule:nonzero;"/></svg>