<?xml version="1.0" encoding="UTF-8" standalone="no"?>
<!DOCTYPE svg PUBLIC "-//W3C//DTD SVG 1.1//EN" "http://www.w3.org/Graphics/SVG/1.1/DTD/svg11.dtd">
<svg width="100%" height="100%" viewBox="0 0 1920 640" version="1.1" xmlns="http://www.w3.org/2000/svg" xmlns:xlink="http://www.w3.org/1999/xlink" xml:space="preserve" xmlns:serif="http://www.serif.com/" style="fill-rule:evenodd;clip-rule:evenodd;stroke-linejoin:round;stroke-miterlimit:2;">
    <g transform="matrix(3.10296,0,0,3.10296,1312,1366.77)">
        <g id="La-Volotte-Logo.svg" transform="matrix(1,0,0,1,-709,-709)">
            <path d="M399.443,446.77C509.288,328.77 674.743,215.42 848.093,147.145C826.309,138.525 783.301,134.312 783.301,134.312C783.301,134.312 743.88,151.791 734.793,155.937C562.843,234.225 417.288,341.55 304.634,480.358L369.459,480.358C379.284,468.975 389.243,457.733 399.443,446.77" style="fill:rgb(161,12,89);fill-rule:nonzero;"/>
            <path d="M475.183,459.427C476.791,457.348 478.616,455.535 480.691,453.931C567.679,367.877 734.225,246.977 904.445,169.027C889.508,163.369 882.22,158.052 862.625,151.769C730.195,203.519 626.454,264.094 517.575,350.86C511.216,357.69 458.987,401.169 423.608,438.015C410.533,451.76 397.62,465.869 384.916,480.356L455.162,480.356C461.775,473.319 468.441,466.335 475.183,459.427" style="fill:rgb(223,219,0);fill-rule:nonzero;"/>
            <path d="M771.521,291.247C797.437,274.476 950.754,192.534 950.754,192.534C950.754,192.534 929.954,177.58 917.217,174.984C815.437,215.138 661.971,312.259 570.421,389.343C534.25,419.801 501.367,450.013 471.262,480.355L529.787,480.355C602.513,409.272 683.738,346.188 771.521,291.247" style="fill:rgb(62,130,47);fill-rule:nonzero;"/>
            <path d="M756.169,372.716C756.727,369.079 815.594,329.566 880.765,292.966C927.819,266.5 1004.81,226.095 1006.47,224.516C1009.01,222.016 970.519,199.52 966.852,199.52C963.181,199.52 791.348,295.137 767.015,307.337C686.485,358.516 612.01,415.137 545.115,480.354L623.477,480.354C665.39,442.162 709.373,406.058 756.169,372.716" style="fill:rgb(151,190,13);fill-rule:nonzero;"/>
            <path d="M741.353,468.204C867.253,364.141 961.024,309.241 1052.62,262.708C1057.14,260.416 1027.77,238.625 1016.88,232.204C1010.42,228.395 771.057,367.295 753.47,388.604C714.499,417.658 676.991,448.25 640.953,480.358L726.974,480.358C731.741,476.279 736.487,472.183 741.353,468.204" style="fill:rgb(221,61,86);fill-rule:nonzero;"/>
            <path d="M765.405,468.318C764.41,469.518 757.155,474.397 749.022,480.355L785.93,480.355C774.851,471.439 766.964,466.422 765.405,468.318" style="fill:rgb(232,81,30);fill-rule:nonzero;"/>
            <path d="M818.461,422.261C813.89,427.707 778.365,457.053 778.365,457.053C778.365,457.053 789.59,466.294 805.428,480.357L882.011,480.357C852.965,450.94 820.895,419.323 818.461,422.261" style="fill:rgb(223,219,0);fill-rule:nonzero;"/>
            <path d="M935.811,460.477C933.611,458.535 864.132,389.006 860.478,390.818C852.59,394.773 830.411,410.227 828.199,413.989C827.695,414.956 871.12,456.185 896.795,480.356L954.257,480.356C947.857,473.293 938.895,463.252 935.811,460.477" style="fill:rgb(0,99,47);fill-rule:nonzero;"/>
            <path d="M921.696,429.795C938.1,444.365 944.533,448.682 944.533,448.682C944.533,448.682 989.242,324.003 996.583,306.849C977.929,314.715 959.754,327.824 941.2,337.574C928.846,362.799 917.542,389.003 904.925,413.878C908.658,418.353 916.975,426.224 921.696,429.795" style="fill:rgb(179,220,211);fill-rule:nonzero;"/>
            <path d="M378.577,383.121C386.21,374.992 397.185,367.321 402.743,358.988C369.314,342.125 302.272,314.046 295.31,312.35C282.86,323.146 275.443,332.867 264.472,346.896C301.727,359.742 336.185,375.421 369.814,391.925C372.514,388.738 375.431,385.821 378.577,383.121" style="fill:rgb(197,70,144);fill-rule:nonzero;"/>
            <path d="M361.023,400.146C328.523,384.2 264.427,359.479 257.198,355.763C245.365,369.346 237.64,379.8 228.198,395.771C263.523,407.117 295.406,421.858 327.006,436.938C338.227,424.525 349.994,412.746 361.023,400.146" style="fill:rgb(117,179,201);fill-rule:nonzero;"/>
            <path d="M458.126,312.351C469.076,303.443 480.913,295.559 491.101,286.005C453.976,270.622 373.601,243.568 372.447,244.201C371.297,244.834 358.005,254.205 351.172,259.647C348.938,261.409 344.822,264.268 345.659,265.701C384.951,279.476 422.238,295.188 458.126,312.351" style="fill:rgb(233,94,15);fill-rule:nonzero;"/>
            <path d="M314.966,451.183C316.541,449.296 319.345,446.679 318.245,445.721C288.245,430.288 256.462,416.746 222.162,405.633C222.116,404.3 220.37,405.513 220.516,406.175C211.245,420.638 201.857,435.042 194.195,451.183C215.591,460.229 235.953,470.304 256.349,480.354L290.416,480.354C298.541,470.371 307.174,460.246 314.966,451.183" style="fill:rgb(22,41,131);fill-rule:nonzero;"/>
            <path d="M540.775,250.78C506.063,235.71 432.221,206.897 429.646,208.047C413.667,216.985 397.275,225.476 383.525,236.589C426.105,247.443 464.059,262.897 502.071,278.31C514.555,269.939 528.542,259.397 540.775,250.78" style="fill:rgb(223,219,0);fill-rule:nonzero;"/>
            <path d="M448.287,320.027C412.112,303.331 375.387,287.202 335.229,274.477C324.737,281.177 313.862,292.273 305.07,302.435C343.254,316.381 377.587,334.206 412.637,351.306C424.225,340.593 436.9,330.914 448.287,320.027" style="fill:rgb(145,94,55);fill-rule:nonzero;"/>
            <path d="M922.49,349.66C904.698,360.801 886.794,371.768 870.34,384.226C879.577,391.051 887.11,399.655 896.677,406.176C905.285,387.335 913.881,368.443 923.01,350.193C923.06,349.61 922.76,348.801 922.49,349.66" style="fill:rgb(175,126,73);fill-rule:nonzero;"/>
        </g>
        <g id="La-Volotte-Logo.svg1" serif:id="La-Volotte-Logo.svg">
        </g>
    </g>
</svg>
